<svg width="700pt" height="700pt" viewBox="0 0 700 550" xmlns="http://www.w3.org/2000/svg"><path d="M520.81 46.668a57.923 57.923 0 0 0-22.719 4.418l-123.75 51.27c-29.672 12.293-43.879 46.559-31.582 76.246l51.246 123.71c12.297 29.688 46.574 43.895 76.242 31.605l123.75-51.27c29.672-12.293 43.879-46.559 31.582-76.246l-51.246-123.71c-9.223-22.266-30.793-35.824-53.523-36.023zm-.047 23.242c13.652.035 26.391 8.133 32.016 21.715l51.223 123.71c7.504 18.109-.832 38.234-18.934 45.73l-123.75 51.27c-18.102 7.5-38.254-.848-45.758-18.957l-51.223-123.71c-7.5-18.109.836-38.234 18.938-45.73l123.75-51.273c4.527-1.871 9.192-2.766 13.742-2.754zM483.915 175a17.51 17.51 0 0 0-12.12 5.125c-3.282 3.285-5.126 7.734-5.126 12.375s1.844 9.09 5.125 12.375a17.508 17.508 0 0 0 24.746 0c3.281-3.285 5.125-7.734 5.125-12.375s-1.844-9.09-5.125-12.375A17.5 17.5 0 0 0 483.915 175zm-304.72 46.668c-22.73.2-44.3 13.758-53.523 36.023l-51.246 123.71c-12.297 29.688 1.91 63.953 31.582 76.246l123.75 51.27c29.676 12.289 63.95-1.918 76.246-31.605l51.246-123.71c12.297-29.688-1.91-63.953-31.582-76.246l-123.75-51.27a57.993 57.993 0 0 0-22.719-4.418zm.047 23.242c4.55-.012 9.215.883 13.738 2.758l123.75 51.27c18.102 7.496 26.438 27.62 18.938 45.73l-51.227 123.71c-7.5 18.109-27.652 26.457-45.754 18.957l-123.75-51.27c-18.102-7.496-26.438-27.621-18.934-45.73l51.223-123.71c5.625-13.582 18.363-21.684 32.016-21.715zm13.262 46.758a17.497 17.497 0 0 0-17.5 17.5c0 4.64 1.844 9.09 5.125 12.375a17.504 17.504 0 0 0 24.75 0 17.51 17.51 0 0 0 5.125-12.375 17.497 17.497 0 0 0-17.5-17.5zm81.668 35a17.497 17.497 0 0 0-17.5 17.5 17.497 17.497 0 0 0 17.5 17.5c4.64 0 9.09-1.844 12.375-5.125a17.51 17.51 0 0 0 5.125-12.375 17.497 17.497 0 0 0-17.5-17.5zM215.836 350a17.51 17.51 0 0 0-12.375 5.125 17.504 17.504 0 0 0 0 24.75A17.51 17.51 0 0 0 215.836 385a17.497 17.497 0 0 0 17.5-17.5 17.497 17.497 0 0 0-17.5-17.5zm-58.332 23.332c-4.64 0-9.094 1.844-12.375 5.125a17.51 17.51 0 0 0-5.125 12.375 17.497 17.497 0 0 0 17.5 17.5 17.497 17.497 0 0 0 17.5-17.5c0-4.64-1.844-9.09-5.125-12.375a17.504 17.504 0 0 0-12.375-5.125zm81.668 35a17.497 17.497 0 0 0-17.5 17.5 17.497 17.497 0 0 0 17.5 17.5 17.497 17.497 0 0 0 17.5-17.5c0-4.64-1.844-9.09-5.125-12.375a17.51 17.51 0 0 0-12.375-5.125z" fill-rule="evenodd"/></svg>